<svg width="123" height="123" viewBox="0 0 123 123" fill="none" xmlns="http://www.w3.org/2000/svg">
<path d="M97.375 41V30.75H87.125V20.5H97.375V10.25H107.625V20.5H117.875V30.75H107.625V41H97.375ZM15.375 112.75C12.5563 112.75 10.1424 111.745 8.13338 109.736C6.12438 107.727 5.12159 105.315 5.12501 102.5V41C5.12501 38.1812 6.12951 35.7674 8.13851 33.7584C10.1475 31.7494 12.5597 30.7466 15.375 30.75H31.5188L41 20.5H71.75V30.75H45.4844L36.1313 41H15.375V102.5H97.375V56.375H107.625V102.5C107.625 105.319 106.621 107.733 104.612 109.742C102.603 111.751 100.19 112.753 97.375 112.75H15.375ZM56.375 94.8125C62.7813 94.8125 68.2274 92.5694 72.7135 88.0833C77.1996 83.5973 79.441 78.1528 79.4375 71.75C79.4375 65.3437 77.1945 59.8976 72.7084 55.4115C68.2223 50.9254 62.7779 48.6841 56.375 48.6875C49.9688 48.6875 44.5226 50.9305 40.0365 55.4166C35.5504 59.9027 33.3091 65.3471 33.3125 71.75C33.3125 78.1562 35.5556 83.6024 40.0416 88.0885C44.5277 92.5745 49.9722 94.8159 56.375 94.8125ZM56.375 84.5625C52.7875 84.5625 49.7552 83.3239 47.2782 80.8468C44.8011 78.3698 43.5625 75.3375 43.5625 71.75C43.5625 68.1625 44.8011 65.1302 47.2782 62.6531C49.7552 60.176 52.7875 58.9375 56.375 58.9375C59.9625 58.9375 62.9948 60.176 65.4719 62.6531C67.949 65.1302 69.1875 68.1625 69.1875 71.75C69.1875 75.3375 67.949 78.3698 65.4719 80.8468C62.9948 83.3239 59.9625 84.5625 56.375 84.5625Z" fill="#282828"/>
</svg>
